<svg width="28" height="28" viewBox="0 0 28 28" fill="none" xmlns="http://www.w3.org/2000/svg">
<g id="ri:instagram-fill">
<path id="Vector" d="M14 2.33325C17.1698 2.33325 17.5653 2.34492 18.809 2.40325C20.0515 2.46159 20.8973 2.65642 21.6416 2.94575C22.4116 3.24209 23.0603 3.64342 23.709 4.29092C24.3022 4.87413 24.7613 5.57961 25.0541 6.35825C25.3423 7.10142 25.5383 7.94842 25.5966 9.19092C25.6515 10.4346 25.6666 10.8301 25.6666 13.9999C25.6666 17.1698 25.655 17.5653 25.5966 18.8089C25.5383 20.0514 25.3423 20.8973 25.0541 21.6416C24.7621 22.4207 24.303 23.1263 23.709 23.7089C23.1256 24.302 22.4202 24.761 21.6416 25.0541C20.8985 25.3423 20.0515 25.5383 18.809 25.5966C17.5653 25.6514 17.1698 25.6666 14 25.6666C10.8301 25.6666 10.4346 25.6549 9.19098 25.5966C7.94848 25.5383 7.10265 25.3423 6.35831 25.0541C5.57936 24.7618 4.87376 24.3027 4.29098 23.7089C3.69762 23.1258 3.23857 22.4203 2.94581 21.6416C2.65648 20.8984 2.46165 20.0514 2.40331 18.8089C2.34848 17.5653 2.33331 17.1698 2.33331 13.9999C2.33331 10.8301 2.34498 10.4346 2.40331 9.19092C2.46165 7.94725 2.65648 7.10259 2.94581 6.35825C3.23776 5.57913 3.69692 4.87346 4.29098 4.29092C4.87393 3.69736 5.57948 3.23827 6.35831 2.94575C7.10265 2.65642 7.94731 2.46159 9.19098 2.40325C10.4346 2.34842 10.8301 2.33325 14 2.33325ZM14 8.16659C12.4529 8.16659 10.9692 8.78117 9.87519 9.87513C8.78123 10.9691 8.16665 12.4528 8.16665 13.9999C8.16665 15.547 8.78123 17.0307 9.87519 18.1247C10.9692 19.2187 12.4529 19.8333 14 19.8333C15.5471 19.8333 17.0308 19.2187 18.1248 18.1247C19.2187 17.0307 19.8333 15.547 19.8333 13.9999C19.8333 12.4528 19.2187 10.9691 18.1248 9.87513C17.0308 8.78117 15.5471 8.16659 14 8.16659ZM21.5833 7.87492C21.5833 7.48814 21.4297 7.11721 21.1562 6.84372C20.8827 6.57023 20.5118 6.41659 20.125 6.41659C19.7382 6.41659 19.3673 6.57023 19.0938 6.84372C18.8203 7.11721 18.6666 7.48814 18.6666 7.87492C18.6666 8.26169 18.8203 8.63263 19.0938 8.90612C19.3673 9.17961 19.7382 9.33325 20.125 9.33325C20.5118 9.33325 20.8827 9.17961 21.1562 8.90612C21.4297 8.63263 21.5833 8.26169 21.5833 7.87492ZM14 10.4999C14.9282 10.4999 15.8185 10.8687 16.4749 11.525C17.1312 12.1814 17.5 13.0717 17.5 13.9999C17.5 14.9282 17.1312 15.8184 16.4749 16.4748C15.8185 17.1312 14.9282 17.4999 14 17.4999C13.0717 17.4999 12.1815 17.1312 11.5251 16.4748C10.8687 15.8184 10.5 14.9282 10.5 13.9999C10.5 13.0717 10.8687 12.1814 11.5251 11.525C12.1815 10.8687 13.0717 10.4999 14 10.4999Z" fill="#121416"/>
</g>
</svg>
