<svg width="28" height="28" viewBox="0 0 28 28" fill="none" xmlns="http://www.w3.org/2000/svg">
<g id="mdi:pinterest">
<path id="Vector" d="M10.5466 25.1299C11.6666 25.4683 12.7983 25.6666 14 25.6666C17.0942 25.6666 20.0616 24.4374 22.2496 22.2495C24.4375 20.0616 25.6666 17.0941 25.6666 13.9999C25.6666 12.4678 25.3649 10.9507 24.7786 9.53528C24.1923 8.11981 23.3329 6.83369 22.2496 5.75034C21.1662 4.66699 19.8801 3.80763 18.4646 3.22132C17.0492 2.63502 15.5321 2.33325 14 2.33325C12.4679 2.33325 10.9508 2.63502 9.53534 3.22132C8.11987 3.80763 6.83375 4.66699 5.7504 5.75034C3.56248 7.93826 2.33331 10.9057 2.33331 13.9999C2.33331 18.9583 5.44831 23.2166 9.84665 24.8966C9.74165 23.9866 9.63665 22.4816 9.84665 21.4433L11.1883 15.6799C11.1883 15.6799 10.85 15.0033 10.85 13.9299C10.85 12.3199 11.8533 11.1183 12.9966 11.1183C14 11.1183 14.4666 11.8533 14.4666 12.7983C14.4666 13.8016 13.8016 15.2366 13.4633 16.6133C13.265 17.7566 14.07 18.7599 15.2366 18.7599C17.3133 18.7599 18.9233 16.5433 18.9233 13.4166C18.9233 10.6166 16.9166 8.70325 14.035 8.70325C10.745 8.70325 8.80831 11.1533 8.80831 13.7316C8.80831 14.7349 9.13498 15.7499 9.67165 16.4149C9.77665 16.4849 9.77665 16.5783 9.74165 16.7533L9.40331 18.0249C9.40331 18.2233 9.27498 18.2933 9.07665 18.1533C7.58331 17.4999 6.71998 15.3766 6.71998 13.6616C6.71998 9.97492 9.33331 6.62659 14.3733 6.62659C18.3866 6.62659 21.5133 9.50825 21.5133 13.3349C21.5133 17.3483 19.0283 20.5683 15.47 20.5683C14.3383 20.5683 13.23 19.9616 12.8333 19.2499L12.0516 22.0149C11.7833 23.0183 11.0483 24.3599 10.5466 25.1649V25.1299Z" fill="#121416"/>
</g>
</svg>
