<svg width="28" height="28" viewBox="0 0 28 28" fill="none" xmlns="http://www.w3.org/2000/svg">
<g id="ri:youtube-fill">
<path id="Vector" d="M25.1335 7.58108C25.6666 9.66008 25.6666 14.0001 25.6666 14.0001C25.6666 14.0001 25.6666 18.3401 25.1335 20.4191C24.8371 21.5682 23.9703 22.4724 22.8725 22.7781C20.8786 23.3334 14 23.3334 14 23.3334C14 23.3334 7.12481 23.3334 5.12748 22.7781C4.02498 22.4677 3.15931 21.5647 2.86648 20.4191C2.33331 18.3401 2.33331 14.0001 2.33331 14.0001C2.33331 14.0001 2.33331 9.66008 2.86648 7.58108C3.16281 6.43191 4.02965 5.52775 5.12748 5.22208C7.12481 4.66675 14 4.66675 14 4.66675C14 4.66675 20.8786 4.66675 22.8725 5.22208C23.975 5.53241 24.8406 6.43541 25.1335 7.58108ZM11.6666 18.0834L18.6666 14.0001L11.6666 9.91675V18.0834Z" fill="#121416"/>
</g>
</svg>
