<svg width="16" height="16" viewBox="0 0 16 16" fill="none" xmlns="http://www.w3.org/2000/svg">
<g id="mdi:pinterest">
<path id="Vector" d="M6.02668 14.3599C6.66668 14.5533 7.31334 14.6666 8.00001 14.6666C9.76812 14.6666 11.4638 13.9642 12.7141 12.714C13.9643 11.4637 14.6667 9.76803 14.6667 7.99992C14.6667 7.12444 14.4942 6.25753 14.1592 5.4487C13.8242 4.63986 13.3331 3.90493 12.7141 3.28587C12.095 2.66682 11.3601 2.17575 10.5512 1.84072C9.7424 1.50569 8.87549 1.33325 8.00001 1.33325C7.12453 1.33325 6.25762 1.50569 5.44879 1.84072C4.63995 2.17575 3.90502 2.66682 3.28596 3.28587C2.03572 4.53612 1.33334 6.23181 1.33334 7.99992C1.33334 10.8333 3.11334 13.2666 5.62668 14.2266C5.56668 13.7066 5.50668 12.8466 5.62668 12.2533L6.39334 8.95992C6.39334 8.95992 6.20001 8.57325 6.20001 7.95992C6.20001 7.03992 6.77334 6.35325 7.42668 6.35325C8.00001 6.35325 8.26668 6.77325 8.26668 7.31325C8.26668 7.88659 7.88668 8.70658 7.69334 9.49325C7.58001 10.1466 8.04001 10.7199 8.70668 10.7199C9.89334 10.7199 10.8133 9.45325 10.8133 7.66658C10.8133 6.06659 9.66668 4.97325 8.02001 4.97325C6.14001 4.97325 5.03334 6.37325 5.03334 7.84659C5.03334 8.41992 5.22001 8.99992 5.52668 9.37992C5.58668 9.41992 5.58668 9.47325 5.56668 9.57325L5.37334 10.2999C5.37334 10.4133 5.30001 10.4533 5.18668 10.3733C4.33334 9.99992 3.84001 8.78658 3.84001 7.80658C3.84001 5.69992 5.33334 3.78659 8.21334 3.78659C10.5067 3.78659 12.2933 5.43325 12.2933 7.61992C12.2933 9.91325 10.8733 11.7533 8.84001 11.7533C8.19334 11.7533 7.56001 11.4066 7.33334 10.9999L6.88668 12.5799C6.73334 13.1533 6.31334 13.9199 6.02668 14.3799V14.3599Z" fill="white"/>
</g>
</svg>
