<svg width="21" height="20" viewBox="0 0 21 20" fill="none" xmlns="http://www.w3.org/2000/svg">
<g id="mdi:pinterest">
<path id="Vector" d="M8.03335 17.9501C8.83335 18.1917 9.64169 18.3334 10.5 18.3334C12.7102 18.3334 14.8298 17.4554 16.3926 15.8926C17.9554 14.3298 18.8334 12.2102 18.8334 10.0001C18.8334 8.90573 18.6178 7.8221 18.199 6.81105C17.7802 5.80001 17.1664 4.88135 16.3926 4.10752C15.6188 3.3337 14.7001 2.71987 13.689 2.30109C12.678 1.8823 11.5944 1.66675 10.5 1.66675C9.40567 1.66675 8.32204 1.8823 7.31099 2.30109C6.29994 2.71987 5.38129 3.3337 4.60746 4.10752C3.04466 5.67033 2.16669 7.78994 2.16669 10.0001C2.16669 13.5417 4.39169 16.5834 7.53335 17.7834C7.45835 17.1334 7.38335 16.0584 7.53335 15.3167L8.49169 11.2001C8.49169 11.2001 8.25002 10.7167 8.25002 9.95008C8.25002 8.80008 8.96669 7.94175 9.78335 7.94175C10.5 7.94175 10.8334 8.46675 10.8334 9.14175C10.8334 9.85842 10.3584 10.8834 10.1167 11.8667C9.97502 12.6834 10.55 13.4001 11.3834 13.4001C12.8667 13.4001 14.0167 11.8167 14.0167 9.58342C14.0167 7.58342 12.5834 6.21675 10.525 6.21675C8.17502 6.21675 6.79169 7.96675 6.79169 9.80842C6.79169 10.5251 7.02502 11.2501 7.40835 11.7251C7.48335 11.7751 7.48335 11.8417 7.45835 11.9667L7.21669 12.8751C7.21669 13.0167 7.12502 13.0667 6.98335 12.9667C5.91669 12.5001 5.30002 10.9834 5.30002 9.75842C5.30002 7.12508 7.16669 4.73341 10.7667 4.73341C13.6334 4.73341 15.8667 6.79175 15.8667 9.52508C15.8667 12.3917 14.0917 14.6917 11.55 14.6917C10.7417 14.6917 9.95002 14.2584 9.66669 13.7501L9.10835 15.7251C8.91669 16.4417 8.39169 17.4001 8.03335 17.9751V17.9501Z" fill="#121416"/>
</g>
</svg>
